# xmcd
#
# Track frame offsets:
#	150
#	17160
#	32337
#	48117
#	62237
#	81187
#	97015
#	111665
#	128440
#	145157
#	158215
#	174617
#	191997
#	212407
#	228160
#	242730
#	257932
#	273680
#	288410
#	304987
#	320022
#
# Disc length: 4479 seconds
#
# Revision: 1
# Processed by: cddbd v1.5.1PL0 Copyright (c) Steve Scherf et al.
# Submitted via: CDex 1.50Beta5
#
DISCID=36117d15
DTITLE=Various Artist - 青春ドラマシリーズソングブック〜俺たちの旅
DYEAR=1900
DGENRE=Pop
TTITLE0=帰らざる日のために
TTITLE1=青春の0番地
TTITLE2=ふれあい
TTITLE3=青春貴族
TTITLE4=俺たちの旅
TTITLE5=ただお前がいい
TTITLE6=生きる
TTITLE7=青春の坂道
TTITLE8=俺たちの朝
TTITLE9=海がよんでる
TTITLE10=青春わすれもの
TTITLE11=光こぼれる時に
TTITLE12=俺たちの祭り
TTITLE13=青春試考
TTITLE14=時代遅れの恋人たち
TTITLE15=海を抱きしめて
TTITLE16=心の風
TTITLE17=新しい空
TTITLE18=星空
TTITLE19=青春の旗をふれ
TTITLE20=野あざみの君に
EXTD=COCA-12889
EXTT0=
EXTT1=
EXTT2=
EXTT3=
EXTT4=
EXTT5=
EXTT6=
EXTT7=
EXTT8=
EXTT9=
EXTT10=
EXTT11=
EXTT12=
EXTT13=
EXTT14=
EXTT15=
EXTT16=
EXTT17=
EXTT18=
EXTT19=
EXTT20=
PLAYORDER=
